<?xml version="1.0" encoding="utf-8"?>
<!-- Generator: Adobe Illustrator 18.0.0, SVG Export Plug-In . SVG Version: 6.00 Build 0)  -->
<!DOCTYPE svg PUBLIC "-//W3C//DTD SVG 1.1//EN" "http://www.w3.org/Graphics/SVG/1.1/DTD/svg11.dtd">
<svg version="1.1" xmlns="http://www.w3.org/2000/svg" xmlns:xlink="http://www.w3.org/1999/xlink" x="0px" y="0px"
	 viewBox="0 0 90 92.7" enable-background="new 0 0 90 92.7" xml:space="preserve">
<g id="_x31_">
</g>
<g id="_x32_">
	<g>
		<circle fill="#3C3C3B" cx="45" cy="46.3" r="42.1"/>
		<g>
			<g>
				<path fill="#808080" d="M38.9,30.8l1.8,2.4c-3.7,2.7-6.5,5.3-8.2,8c-1.8,2.6-2.6,4.9-2.6,6.8c0,1.3,0.5,1.9,1.4,1.9l0.6-0.1
					c0.9-0.2,1.7-0.3,2.3-0.3c1.7,0,3.1,0.6,4.3,1.8c1.2,1.2,1.8,2.7,1.8,4.6c0,2-0.6,3.7-1.9,5.1c-1.3,1.4-2.7,2.1-4.4,2.1
					c-2.4,0-4.5-1-6.4-3.1c-1.8-2.1-2.8-4.7-2.8-8C24.7,44.2,29.4,37.1,38.9,30.8z M62.1,30.8l1.9,2.4c-3.7,2.7-6.5,5.4-8.2,8
					c-1.8,2.6-2.6,4.9-2.6,6.9c0,1.3,0.4,1.9,1.3,1.9l0.6-0.1c0.9-0.2,1.7-0.3,2.3-0.3c1.7,0,3.1,0.6,4.3,1.8
					c1.2,1.2,1.8,2.7,1.8,4.5c0,2-0.6,3.7-1.9,5.1c-1.3,1.4-2.7,2.1-4.4,2.1c-2.5,0-4.6-1-6.4-3.1c-1.8-2.1-2.7-4.7-2.7-8
					C47.9,44.2,52.7,37.1,62.1,30.8z"/>
			</g>
		</g>
	</g>
</g>
</svg>
