<?xml version="1.0" encoding="utf-8"?>
<!-- Generator: Adobe Illustrator 18.0.0, SVG Export Plug-In . SVG Version: 6.00 Build 0)  -->
<!DOCTYPE svg PUBLIC "-//W3C//DTD SVG 1.1//EN" "http://www.w3.org/Graphics/SVG/1.1/DTD/svg11.dtd">
<svg version="1.1" xmlns="http://www.w3.org/2000/svg" xmlns:xlink="http://www.w3.org/1999/xlink" x="0px" y="0px"
	 viewBox="0 0 84.5 84" enable-background="new 0 0 84.5 84" xml:space="preserve">
<g id="_x31_">
</g>
<g id="_x32_">
	<g>
		<circle opacity="0.4" fill="#FFFFFF" cx="42.2" cy="42" r="42.1"/>
		<g opacity="0.4">
			<path fill-rule="evenodd" clip-rule="evenodd" fill="#FFFFFF" d="M60.2,35c0,1.9-1.5,3.5-3.5,3.5c-1.9,0-3.5-1.6-3.5-3.5
				c0-1.9,1.5-3.5,3.5-3.5C58.6,31.5,60.2,33.1,60.2,35L60.2,35z M60.2,35"/>
			<path fill-rule="evenodd" clip-rule="evenodd" fill="#FFFFFF" d="M66.8,66.2c0.2,0,0.3-0.1,0.3-0.3V25c0-0.2-0.1-0.3-0.3-0.3
				H16.6c-0.2,0-0.3,0.1-0.3,0.3v40.9c0,0.2,0.1,0.3,0.3,0.3H66.8z M18.6,26.9h46.1v36.9H18.6V26.9z M18.6,26.9"/>
			<path fill-rule="evenodd" clip-rule="evenodd" fill="#FFFFFF" d="M50.7,42.5c-0.2-0.3-0.6-0.4-0.9-0.2l-6.4,4.5
				c-0.1,0.1-0.3,0.1-0.4-0.1l-7.5-13c-0.2-0.3-0.5-0.3-0.6,0l-0.7,1.4L20.9,60.6c-0.2,0.3,0,0.6,0.3,0.6H62c0.3,0,0.5-0.2,0.3-0.6
				L50.7,42.5z M50.7,42.5"/>
		</g>
	</g>
</g>
</svg>
