<?xml version="1.0" encoding="utf-8"?>
<!-- Generator: Adobe Illustrator 18.0.0, SVG Export Plug-In . SVG Version: 6.00 Build 0)  -->
<!DOCTYPE svg PUBLIC "-//W3C//DTD SVG 1.1//EN" "http://www.w3.org/Graphics/SVG/1.1/DTD/svg11.dtd">
<svg version="1.1" xmlns="http://www.w3.org/2000/svg" xmlns:xlink="http://www.w3.org/1999/xlink" x="0px" y="0px"
	 viewBox="0 0 90 92.7" enable-background="new 0 0 90 92.7" xml:space="preserve">
<g id="_x31_">
</g>
<g id="_x32_">
	<g>
		<circle fill="#3C3C3B" cx="45" cy="46.3" r="42.1"/>
		<path id="XMLID_8_" fill-rule="evenodd" clip-rule="evenodd" fill="#808080" d="M27,41.6c1.5,0,2.9,0.5,4,1.4l15.8-11
			c-0.3-0.7-0.4-1.5-0.4-2.3c0-3.5,2.9-6.4,6.4-6.4c3.5,0,6.4,2.9,6.4,6.4S56.2,36,52.7,36c-1.5,0-2.9-0.5-4-1.4l-15.8,11
			c0.3,0.7,0.4,1.4,0.4,2.3c0,0.9-0.2,1.7-0.5,2.5l15.7,11c1.1-0.9,2.6-1.6,4.2-1.6c3.5,0,6.4,2.8,6.4,6.4c0,3.5-2.8,6.4-6.4,6.4
			c-3.5,0-6.4-2.9-6.4-6.4c0-0.7,0.1-1.4,0.4-2L30.8,53.1c-1.1,0.8-2.4,1.3-3.8,1.3c-3.5,0-6.4-2.9-6.4-6.4
			C20.6,44.4,23.4,41.6,27,41.6z"/>
	</g>
</g>
</svg>
