<?xml version="1.0" encoding="utf-8"?>
<!-- Generator: Adobe Illustrator 18.0.0, SVG Export Plug-In . SVG Version: 6.00 Build 0)  -->
<!DOCTYPE svg PUBLIC "-//W3C//DTD SVG 1.1//EN" "http://www.w3.org/Graphics/SVG/1.1/DTD/svg11.dtd">
<svg version="1.1" xmlns="http://www.w3.org/2000/svg" xmlns:xlink="http://www.w3.org/1999/xlink" x="0px" y="0px"
	 viewBox="0 0 84.5 84" enable-background="new 0 0 84.5 84" xml:space="preserve">
<g id="_x31_">
</g>
<g id="_x32_">
	<g>
		<circle opacity="0.4" fill="#FFFFFF" cx="42.2" cy="42" r="42.1"/>
		<g opacity="0.4">
			<path fill="#FFFFFF" d="M42.9,21.9c-11.8,0-21.2,9.4-21.2,21.2c0,11.8,9.4,21.2,21.2,21.2c1.9,0,3.5-1.6,3.5-3.5
				c0-0.9-0.2-1.6-0.9-2.4c-0.5-0.7-0.9-1.4-0.9-2.3c0-1.9,1.6-3.5,3.5-3.5h4.2c6.6,0,11.8-5.2,11.8-11.8
				C64.1,30.4,54.7,21.9,42.9,21.9L42.9,21.9z M30,43.1c-1.9,0-3.5-1.6-3.5-3.5c0-1.9,1.6-3.5,3.5-3.5c1.9,0,3.5,1.6,3.5,3.5
				C33.5,41.5,31.8,43.1,30,43.1L30,43.1z M31.5,55.4c-1.9,0-3.5-1.6-3.5-3.5c0-1.9,1.6-3.5,3.5-3.5c1.9,0,3.5,1.6,3.5,3.5
				C35,53.7,33.3,55.4,31.5,55.4L31.5,55.4z M37,33.7c-1.9,0-3.5-1.6-3.5-3.5c0-1.9,1.6-3.5,3.5-3.5c1.9,0,3.5,1.6,3.5,3.5
				C40.6,32,38.9,33.7,37,33.7L37,33.7z M48.8,33.7c-1.9,0-3.5-1.6-3.5-3.5c0-1.9,1.6-3.5,3.5-3.5c1.9,0,3.5,1.6,3.5,3.5
				C52.3,32,50.7,33.7,48.8,33.7L48.8,33.7z M55.9,43.1c-1.9,0-3.5-1.6-3.5-3.5c0-1.9,1.7-3.5,3.5-3.5c1.9,0,3.5,1.6,3.5,3.5
				C59.4,41.5,57.8,43.1,55.9,43.1L55.9,43.1z M55.9,43.1"/>
		</g>
	</g>
</g>
</svg>
