<?xml version="1.0" encoding="utf-8"?>
<!-- Generator: Adobe Illustrator 18.0.0, SVG Export Plug-In . SVG Version: 6.00 Build 0)  -->
<!DOCTYPE svg PUBLIC "-//W3C//DTD SVG 1.1//EN" "http://www.w3.org/Graphics/SVG/1.1/DTD/svg11.dtd">
<svg version="1.1" xmlns="http://www.w3.org/2000/svg" xmlns:xlink="http://www.w3.org/1999/xlink" x="0px" y="0px"
	 viewBox="0 0 84.5 84" enable-background="new 0 0 84.5 84" xml:space="preserve">
<g id="_x31_">
</g>
<g id="_x32_">
	<g>
		<circle opacity="0.4" fill="#FFFFFF" cx="42.4" cy="41.9" r="42.1"/>
		<g opacity="0.4">
			<path fill="#FFFFFF" d="M26.9,23.9l15.9,34.1h-3.7l-5.4-11.2H19.1l-5.3,11.2H10l16.1-34.1H26.9z M26.5,31.1l-5.8,12.3h11.7
				L26.5,31.1z"/>
			<path fill="#FFFFFF" d="M72.7,32.7v25.2h-3.2v-4.3c-1.4,1.7-2.9,2.9-4.6,3.7c-1.7,0.8-3.5,1.3-5.6,1.3c-3.6,0-6.6-1.3-9.1-3.9
				c-2.5-2.6-3.8-5.7-3.8-9.4c0-3.6,1.3-6.7,3.8-9.3c2.5-2.6,5.6-3.9,9.2-3.9c2.1,0,3.9,0.4,5.6,1.3c1.7,0.9,3.1,2.2,4.4,4v-4.6
				H72.7z M59.8,35.2c-1.8,0-3.5,0.4-5,1.3c-1.5,0.9-2.7,2.1-3.6,3.7s-1.4,3.3-1.4,5.1c0,1.8,0.5,3.5,1.4,5.1
				c0.9,1.6,2.1,2.9,3.7,3.8c1.5,0.9,3.2,1.4,4.9,1.4c1.8,0,3.5-0.4,5-1.3c1.6-0.9,2.8-2.1,3.7-3.6c0.9-1.5,1.3-3.2,1.3-5.2
				c0-2.9-1-5.4-2.9-7.3C64.9,36.2,62.6,35.2,59.8,35.2z"/>
		</g>
	</g>
</g>
</svg>
