<?xml version="1.0" encoding="utf-8"?>
<!-- Generator: Adobe Illustrator 18.0.0, SVG Export Plug-In . SVG Version: 6.00 Build 0)  -->
<!DOCTYPE svg PUBLIC "-//W3C//DTD SVG 1.1//EN" "http://www.w3.org/Graphics/SVG/1.1/DTD/svg11.dtd">
<svg version="1.1" xmlns="http://www.w3.org/2000/svg" xmlns:xlink="http://www.w3.org/1999/xlink" x="0px" y="0px"
	 viewBox="0 0 198 189" enable-background="new 0 0 198 189"  height="150px" width="157px" xml:space="preserve">
<g id="_x31_">
</g>
<g id="_x32_">
	<circle opacity="0.4" fill="#FFFFFF" cx="99" cy="94.5" r="82.9"/>
	<path opacity="0.4" fill="#FFFFFF" d="M153.5,60.7c-4,1.8-8.3,3-12.8,3.5c4.6-2.8,8.2-7.1,9.8-12.4c-4.3,2.6-9.1,4.4-14.2,5.4
		c-4.1-4.3-9.9-7.1-16.3-7.1c-12.3,0-22.3,10-22.3,22.3c0,1.8,0.2,3.5,0.6,5.1c-18.6-0.9-35-9.8-46-23.3c-1.9,3.3-3,7.1-3,11.2
		c0,7.8,3.9,14.6,9.9,18.6c-3.7-0.1-7.1-1.1-10.1-2.8c0,0.1,0,0.2,0,0.3c0,10.8,7.7,19.9,17.9,21.9c-1.9,0.5-3.8,0.8-5.9,0.8
		c-1.4,0-2.8-0.1-4.2-0.4c2.8,8.9,11.1,15.3,20.9,15.5c-7.6,6-17.3,9.6-27.7,9.6c-1.8,0-3.6-0.1-5.3-0.3c9.9,6.3,21.6,10,34.2,10
		c41.1,0,63.6-34,63.6-63.6c0-1,0-1.9-0.1-2.9C146.7,69.2,150.5,65.2,153.5,60.7z"/>
</g>
</svg>
